# xmcd
#
# Track frame offsets:
#	182
#	12415
#	23165
#	34892
#	44707
#	58685
#	72032
#	82747
#	95145
#	106647
#	117525
#	130135
#	143087
#	154357
#	161970
#	171340
#
# Disc length: 2437 seconds
#
# Revision: 0
# Processed by: cddbd v1.4PL0 Copyright (c) Steve Scherf et al.
# Submitted via: EasyCDDAExtractor 4.6.9.1
#
DISCID=de098310
DTITLE=Jim Reeves - We thank thee
DYEAR=1900
DGENRE=country
TTITLE0=We thank thee
TTITLE1=Where we'll never grow old
TTITLE2=I'll fly away
TTITLE3=Across the bridge
TTITLE4=Have thine own way,Lord
TTITLE5=My cathedral
TTITLE6=The night watch
TTITLE7=I'd rather have Jesus
TTITLE8=Where do i go from here
TTITLE9=Take my hand precious Lord
TTITLE10=This world is not my home
TTITLE11=Oh,gentle sheperd
TTITLE12=How long has it been
TTITLE13=Teach me how to pray
TTITLE14=The Padre of old San Antone
TTITLE15=An evening prayer
EXTD=
EXTT0=
EXTT1=
EXTT2=
EXTT3=
EXTT4=
EXTT5=
EXTT6=
EXTT7=
EXTT8=
EXTT9=
EXTT10=
EXTT11=
EXTT12=
EXTT13=
EXTT14=
EXTT15=
PLAYORDER=
